<?xml version="1.0" encoding="utf-8"?>
<!-- Generator: Adobe Illustrator 25.2.3, SVG Export Plug-In . SVG Version: 6.00 Build 0)  -->
<svg version="1.1" id="Capa_1" xmlns="http://www.w3.org/2000/svg" xmlns:xlink="http://www.w3.org/1999/xlink" x="0px" y="0px"
	 viewBox="0 0 1080 1080" style="enable-background:new 0 0 1080 1080;" xml:space="preserve">
<style type="text/css">
	.st0{enable-background:new    ;}
	.st1{fill:#FFFFFF;}
	.st2{fill:#F2E849;}
	.st3{fill:#0A458F;}
	.st4{fill:#F4F8FF;}
</style>
<g>
	<g>
		<g class="st0">
			<g>
				<path class="st1" d="M483.59,296.52c-27.13-20.11-54.27-40.22-81.4-60.33c-1.43-1.94-2.98-3.8-4.65-5.56
					c-2.34-2.49-4.85-4.72-7.51-6.69l81.4,60.33c2.67,1.97,5.17,4.21,7.51,6.7C480.61,292.72,482.16,294.57,483.59,296.52z"/>
			</g>
			<g>
				<path class="st1" d="M227.46,645.47c-11.11-0.86-21.15-4.53-29.63-10.8l-81.4-60.33c8.47,6.28,18.52,9.95,29.63,10.8
					C170.48,603.23,203.04,627.37,227.46,645.47z"/>
			</g>
			<g>
				<path class="st1" d="M402.19,236.18l81.4,60.33c-1.1,1.09-2.2,2.19-3.3,3.32c-25.42,26.2-40.7,56.31-45.43,89.48l-81.4-60.33
					c4.72-33.17,20-63.27,45.43-89.48C399.98,238.37,401.08,237.27,402.19,236.18z"/>
			</g>
			<g>
				<polygon class="st1" points="353.46,328.98 434.86,389.31 420.74,488.47 339.34,428.13 				"/>
			</g>
			<g>
				<path class="st1" d="M419.95,495.14c-27.13-20.11-54.27-40.22-81.4-60.33c0.21-2.2,0.48-4.43,0.8-6.67l81.4,60.33
					C420.42,490.71,420.16,492.94,419.95,495.14z"/>
			</g>
			<g>
				<path class="st1" d="M338.65,589.99c-40.48,5.95-77.82,24.6-111.19,55.48l-81.4-60.33c33.38-30.88,70.72-49.53,111.2-55.48
					c8.52-1.26,16.91-1.89,24.92-1.89c18.98,0,36.37,3.43,52.04,10.24c27.13,20.11,54.27,40.22,81.4,60.33
					c-15.67-6.81-33.05-10.24-52.04-10.24C355.56,588.09,347.17,588.73,338.65,589.99z"/>
			</g>
			<g>
				<path class="st1" d="M415.61,598.33c-0.44-0.25-0.95-0.7-1.36-1.01c-3.49-2.59-6.98-5.17-10.47-7.76
					c-3.94-2.92-7.88-5.84-11.82-8.76c-19.25-14.27-38.5-28.54-57.75-42.81c1.52,0.66,3.03,1.35,4.51,2.08l81.4,60.33
					C418.63,599.68,417.13,598.99,415.61,598.33z"/>
			</g>
			<g>
				<polygon class="st1" points="227.39,692.78 308.79,753.12 308.67,753.24 227.27,692.91 				"/>
			</g>
			<g>
				<path class="st1" d="M355.41,212.97c16.7,0,31.26,6.09,42.12,17.65c1.68,1.76,3.23,3.62,4.65,5.56c-1.1,1.09-2.2,2.19-3.3,3.32
					c-25.42,26.2-40.7,56.31-45.43,89.48l-14.12,99.16c-5.04,35.42,3.56,65.89,24.86,88.09c-1.49,1.96-3.17,3.76-4.9,5.54
					c-6.62,6.82-13.49,12.93-20.59,18.31c-16.83-8.19-35.73-12.31-56.55-12.31c-8.01,0-16.4,0.63-24.92,1.89
					c-40.48,5.95-77.82,24.6-111.2,55.48c-14.42-1.11-27.05-6.97-36.77-17.11c-13.24-13.8-18.83-33.44-15.73-55.26
					c2.63-18.47,11.08-35.84,24.49-50.38c-9.35-13.15-13.02-30.1-10.39-48.6l14.12-99.16c2.74-19.23,11.78-37.26,26.16-52.15
					c14.4-15.03,31.82-24.41,50.39-27.14l146.56-21.58C348.45,213.23,351.99,212.97,355.41,212.97z"/>
			</g>
			<g>
				<path class="st1" d="M419.95,495.14c-3.11,32.57,5.7,60.62,25.66,81.42l-81.4-60.33c-19.96-20.8-28.77-48.85-25.66-81.42
					C365.68,454.92,392.81,475.03,419.95,495.14z"/>
			</g>
			<g>
				<path class="st1" d="M364.2,516.23l81.4,60.33c-1.49,1.96-3.17,3.76-4.9,5.54c-6.62,6.82-13.49,12.93-20.59,18.31l-81.4-60.33
					c7.1-5.38,13.97-11.48,20.59-18.31C361.03,519.99,362.71,518.19,364.2,516.23z"/>
			</g>
			<g>
				<path class="st1" d="M300.77,787.03l-81.4-60.33c-0.49-0.36-0.97-0.79-1.46-1.31c-1.63-1.71-3.32-3.45-2.28-10.73
					c0.76-5.31,2.77-12.59,11.65-21.75l81.4,60.33c-8.87,9.16-10.89,16.43-11.65,21.75c-1.04,7.27,0.65,9.02,2.28,10.73
					C299.8,786.23,300.28,786.67,300.77,787.03z"/>
			</g>
			<g>
				<polygon class="st1" points="508.15,339.4 589.55,399.74 576.64,401.63 495.24,341.3 				"/>
			</g>
			<g>
				<path class="st1" d="M258.61,681.87l81.4,60.33c-1.61-1.19-3.3-1.63-5.83-1.63c-1.16,0-2.46,0.1-3.86,0.31
					c-5.28,0.77-12.49,2.86-21.53,12.23l-81.4-60.33c9.03-9.37,16.25-11.46,21.53-12.23c1.4-0.21,2.7-0.31,3.86-0.31
					C255.31,680.24,257,680.67,258.61,681.87z"/>
			</g>
			<g>
				<polygon class="st1" points="495.24,341.3 576.64,401.63 570.17,447.07 488.77,386.73 				"/>
			</g>
			<g>
				<path class="st1" d="M456.94,586.56l-81.4-60.33c2.91,2.15,5.93,4.12,9.06,5.88l81.4,60.33
					C462.87,590.68,459.84,588.72,456.94,586.56z"/>
			</g>
			<g>
				<path class="st1" d="M357.09,551.23l81.4,60.33c3.32,2.46,6.54,5.11,9.65,7.96l-81.4-60.33
					C363.63,556.34,360.41,553.69,357.09,551.23z"/>
			</g>
			<g>
				<path class="st1" d="M621.38,199.9l81.4,60.33c2.57,1.91,5.06,3.97,7.44,6.18l-81.4-60.33
					C626.44,203.86,623.96,201.8,621.38,199.9z"/>
			</g>
			<g>
				<path class="st1" d="M441.46,642.89c-27.13-20.12-54.26-40.23-81.4-60.33c1.15-8.05,3.4-15.88,6.68-23.37l81.4,60.33
					C444.86,627,442.61,634.84,441.46,642.89z"/>
			</g>
			<g>
				<path class="st1" d="M436.62,503.25l81.4,60.33c-18.57,2.74-35.99,12.12-50.39,27.14c-0.55,0.57-1.09,1.14-1.62,1.72
					l-81.4-60.33c0.53-0.58,1.07-1.15,1.62-1.72C400.63,515.37,418.04,505.99,436.62,503.25z"/>
			</g>
			<g>
				<path class="st1" d="M695.19,426.37c-27.13-20.11-54.27-40.22-81.4-60.33c-0.06-0.06-0.12-0.13-0.18-0.19
					c-19.56-20.62-27.44-48.8-22.78-81.49c4.06-28.51,17.16-55.47,38-78.28l81.4,60.33c-20.83,22.81-33.94,49.78-38,78.28
					c-4.66,32.69,3.22,60.87,22.78,81.49C695.07,426.24,695.13,426.3,695.19,426.37z"/>
			</g>
			<g>
				<path class="st1" d="M695.19,426.37c3.32,3.41,6.77,6.44,10.39,9.11l-81.4-60.33c-3.61-2.68-7.07-5.7-10.39-9.11
					c26.68,19.78,53.37,39.56,80.05,59.33c0.02,0.02,0.05,0.04,0.07,0.05c0.23,0.17,0.45,0.34,0.68,0.5
					C694.79,426.07,695.01,426.2,695.19,426.37z"/>
			</g>
			<g>
				<path class="st1" d="M331.84,780.69l81.4,60.33c-2.01,14.09-0.39,27.26,4.57,38.53l-81.4-60.33
					C331.45,807.95,329.83,794.78,331.84,780.69z"/>
			</g>
			<g>
				<path class="st1" d="M201.95,917.48l-81.4-60.33c21.14,15.67,46.35,23.59,75.22,23.59c8.01,0,16.4-0.63,24.91-1.88
					c42.43-6.24,81.33-26.3,115.74-59.63l81.4,60.33c-34.41,33.33-73.31,53.39-115.74,59.63c-8.51,1.25-16.89,1.88-24.91,1.88
					C248.3,941.07,223.09,933.15,201.95,917.48z"/>
			</g>
			<g>
				<polygon class="st1" points="595.98,479.8 677.38,540.13 518.02,563.58 436.62,503.25 				"/>
			</g>
			<g>
				<path class="st1" d="M605.03,479.03l81.4,60.33c-2.97,0.06-6.01,0.32-9.05,0.76l-81.4-60.33
					C599.02,479.35,602.06,479.09,605.03,479.03z"/>
			</g>
			<g>
				<path class="st1" d="M693.42,529.47c0.1,0.33,0.21,0.65,0.31,0.97l-81.4-60.33c-0.11-0.32-0.21-0.64-0.31-0.97
					c20.91,15.5,41.83,31,62.74,46.5c3.11,2.31,6.22,4.61,9.33,6.92c0.73,0.54,1.71,1.27,2.44,1.81c0.36,0.27,0.84,0.63,1.21,0.89
					c0.71,0.52,1.65,1.22,2.36,1.75c0.34,0.25,0.8,0.59,1.14,0.85C691.89,528.34,692.94,528.81,693.42,529.47z"/>
			</g>
			<g>
				<path class="st1" d="M693.73,530.44c-2.31,3.02-4.75,5.99-7.3,8.92l-81.4-60.33c2.55-2.93,4.99-5.9,7.3-8.92
					C636.75,488.21,669.31,512.34,693.73,530.44z"/>
			</g>
			<g>
				<path class="st1" d="M715.01,545.69c-5.29-2.72-11.03-4.59-17.13-5.56l-81.4-60.33c6.1,0.97,11.84,2.84,17.13,5.56l81.37,60.31
					C714.98,545.67,715,545.68,715.01,545.69z"/>
			</g>
			<g>
				<path class="st1" d="M606.41,479.02c3.45,0,6.81,0.26,10.07,0.78c6.1,0.97,11.84,2.84,17.13,5.56c-4,3.07-7.85,6.51-11.49,10.31
					c-14.38,14.9-23.42,32.92-26.16,52.16l-25.12,176.38c-9.22,5.33-19.07,8.83-29.21,10.33l-60.96,8.97l-4.23,29.67
					c-2.77,19.42-11.88,37.57-26.36,52.5c-14.36,14.81-31.67,24.07-50.04,26.77c-3.58,0.52-7.15,0.79-10.6,0.79
					c-16.55,0-31.03-5.98-41.87-17.3c-4.7-4.89-8.43-10.52-11.16-16.72c-4.96-11.28-6.58-24.45-4.57-38.53l28.22-198.14
					c1.15-8.05,3.4-15.88,6.68-23.37c4.26-9.72,10.27-18.85,17.86-27.07c0.53-0.58,1.07-1.15,1.62-1.72
					c14.41-15.02,31.82-24.4,50.39-27.14l159.36-23.45c3.04-0.44,6.08-0.7,9.05-0.76C605.49,479.02,605.95,479.02,606.41,479.02z"/>
			</g>
			<g>
				<polygon class="st1" points="360.06,582.55 441.46,642.89 413.24,841.02 331.84,780.69 				"/>
			</g>
			<g>
				<path class="st1" d="M778.29,174.72l81.4,60.33c1.53,1.13,3.02,2.32,4.48,3.57l-81.4-60.33
					C781.32,177.04,779.82,175.85,778.29,174.72z"/>
			</g>
			<g>
				<path class="st1" d="M705.48,435.42l-81.4-60.33c3.8,2.81,7.81,5.27,12.02,7.37l81.4,60.33
					C713.29,440.69,709.27,438.23,705.48,435.42z"/>
			</g>
			<g>
				<polygon class="st1" points="636.09,382.45 717.49,442.79 707.89,456.16 626.49,395.82 				"/>
			</g>
			<g>
				<path class="st1" d="M331.84,780.69c-2.01,14.09-0.39,27.26,4.57,38.53c-34.41,33.33-73.32,53.39-115.74,59.63
					c-8.51,1.25-16.89,1.88-24.91,1.88c-36.37,0-66.93-12.58-90.87-37.38c-29.16-30.59-40.82-72.44-33.88-121.2
					c6.67-46.86,28.32-89.45,64.35-126.59c3.52-3.63,7.08-7.11,10.69-10.45c33.38-30.88,70.72-49.53,111.2-55.48
					c8.52-1.26,16.91-1.89,24.92-1.89c20.82,0,39.73,4.13,56.55,12.31c10.1,4.91,19.45,11.29,28.02,19.11
					c-3.28,7.48-5.53,15.32-6.68,23.37L331.84,780.69z M250.87,715.67c8.82-9.12,10.82-16.38,11.57-21.68
					c1.03-7.26-0.65-9.02-2.28-10.73c-2.16-2.26-4.03-3.02-7.38-3.02c-1.16,0-2.46,0.1-3.86,0.31c-5.28,0.77-12.49,2.86-21.53,12.23
					l-0.12,0.12c-8.87,9.16-10.89,16.43-11.65,21.75c-1.04,7.27,0.65,9.02,2.28,10.73c2.07,2.16,3.88,2.89,7.19,2.89
					c1.17,0,2.49-0.11,3.91-0.31C234.36,727.17,241.69,725.06,250.87,715.67L250.87,715.67z"/>
			</g>
			<g>
				<path class="st1" d="M693.42,529.47c-27.13-20.11-54.27-40.22-81.4-60.33c-1.67-5.33-2.69-11.05-3.02-17.09
					c-1.08-19.34,4.98-38.79,17.5-56.23l81.4,60.33c-12.52,17.44-18.57,36.89-17.5,56.23C690.73,518.42,691.75,524.14,693.42,529.47
					z"/>
			</g>
			<g>
				<path class="st1" d="M636.09,382.45l-9.6,13.37c-12.52,17.44-18.57,36.89-17.5,56.23c0.35,6.4,1.48,12.45,3.33,18.05
					c-2.31,3.02-4.75,5.99-7.3,8.92c-2.97,0.06-6.01,0.32-9.05,0.76l-159.36,23.45c-18.57,2.74-35.99,12.12-50.39,27.14
					c-0.55,0.57-1.09,1.14-1.62,1.72c-7.39-4.16-14.18-9.42-20.26-15.74c-21.45-22.35-30.05-52.82-25-88.24l14.12-99.16
					c4.72-33.17,20-63.27,45.43-89.48c1.09-1.13,2.19-2.23,3.29-3.32c24.5-24.08,52.29-38.55,82.66-43.02l63.81-9.39
					c6.01-0.89,11.95-1.34,17.66-1.34c24.28,0,45.78,8.15,62.51,23.64c-20.83,22.81-33.94,49.78-38,78.28
					c-4.66,32.69,3.22,60.87,22.78,81.49C620.47,372.93,627.91,378.38,636.09,382.45z M501.68,384.83l6.47-45.42l-12.91,1.89
					l-6.47,45.43L501.68,384.83L501.68,384.83z"/>
			</g>
			<g>
				<path class="st1" d="M715.01,545.69c-4,3.07-7.85,6.51-11.49,10.31c-27.13-20.11-54.27-40.22-81.4-60.33
					c3.65-3.81,7.49-7.25,11.49-10.31C658.03,503.46,690.59,527.59,715.01,545.69z"/>
			</g>
			<g>
				<path class="st1" d="M703.51,556.01c-14.38,14.9-23.42,32.92-26.16,52.16l-81.4-60.33c2.74-19.24,11.78-37.27,26.16-52.16
					C649.25,515.78,676.38,535.89,703.51,556.01z"/>
			</g>
			<g>
				<path class="st1" d="M753.91,528.87c-13.87,2.04-27.09,7.79-38.9,16.83l-81.4-60.33c11.81-9.04,25.03-14.79,38.9-16.83
					C696.93,486.63,729.49,510.77,753.91,528.87z"/>
			</g>
			<g>
				<polygon class="st1" points="480.67,743.51 562.07,803.85 557.84,833.52 476.44,773.18 				"/>
			</g>
			<g>
				<path class="st1" d="M436.12,902.58l-81.4-60.33c9.75,7.23,21.59,11,34.73,11c3.45,0,7.02-0.27,10.6-0.79
					c18.37-2.71,35.68-11.97,50.04-26.77c14.48-14.93,23.59-33.08,26.36-52.5l81.4,60.33c-2.77,19.42-11.88,37.57-26.36,52.5
					c-14.36,14.81-31.67,24.07-50.04,26.77c-3.58,0.52-7.15,0.79-10.6,0.79C457.7,913.58,445.87,909.8,436.12,902.58z"/>
			</g>
			<g>
				<path class="st1" d="M887.46,151.13l81.4,60.33c14.17,10.5,22.32,26.56,23.39,45.97c1.07,19.45-5.08,38.96-17.79,56.43
					l-81.4-60.33c12.71-17.47,18.86-36.98,17.79-56.43C909.78,177.69,901.63,161.63,887.46,151.13z"/>
			</g>
			<g>
				<polygon class="st1" points="893.07,253.54 974.47,313.87 964.99,327.08 883.59,266.75 				"/>
			</g>
			<g>
				<polygon class="st1" points="541.63,734.54 623.03,794.88 562.07,803.85 480.67,743.51 				"/>
			</g>
			<g>
				<path class="st1" d="M570.83,724.21l81.4,60.33c-9.22,5.33-19.06,8.83-29.2,10.33l-81.4-60.33
					C551.77,733.05,561.61,729.55,570.83,724.21z"/>
			</g>
			<g>
				<polygon class="st1" points="595.95,547.84 677.35,608.17 652.23,784.55 570.83,724.21 				"/>
			</g>
			<g>
				<path class="st1" d="M976.69,334.29c2.73,2.02,5.34,4.22,7.84,6.61c-27.13-20.11-54.27-40.22-81.4-60.33
					c-2.49-2.38-5.11-4.59-7.83-6.61C919.7,292.05,952.27,316.19,976.69,334.29z"/>
			</g>
			<g>
				<polygon class="st1" points="831.87,445.08 913.27,505.41 753.91,528.87 672.51,468.53 				"/>
			</g>
			<g>
				<path class="st1" d="M923.7,504.63c-3.4,0-6.91,0.26-10.43,0.78l-81.4-60.33c3.52-0.52,7.03-0.78,10.43-0.78
					C869.43,464.41,896.57,484.52,923.7,504.63z"/>
			</g>
			<g>
				<path class="st1" d="M958.46,515.69c-9.8-7.26-21.65-11.06-34.76-11.06c-27.13-20.11-54.27-40.22-81.4-60.33
					c13.11,0,24.96,3.79,34.76,11.06C901.48,473.46,934.04,497.59,958.46,515.69z"/>
			</g>
			<g>
				<path class="st1" d="M877.06,455.35l81.4,60.33c0.28,0.21,0.57,0.42,0.85,0.64c2.24,1.73,4.38,3.64,6.39,5.74
					c13.27,13.84,18.87,33.4,15.78,55.11c-2.75,19.32-11.86,37.42-26.35,52.35c-7.16,7.26-14.63,12.97-22.54,17.34l-81.4-60.33
					c7.91-4.37,15.37-10.07,22.54-17.34c14.49-14.93,23.59-33.03,26.35-52.35c3.09-21.7-2.5-41.27-15.78-55.11
					c-2.01-2.1-4.14-4.01-6.39-5.74C877.62,455.78,877.34,455.56,877.06,455.35z"/>
			</g>
			<g>
				<path class="st1" d="M877.91,455.99c27.13,20.11,39.35,60.34,81.4,60.34L877.91,455.99
					C877.91,455.99,877.91,455.99,877.91,455.99z"/>
			</g>
			<g>
				<path class="st1" d="M968.73,507.34c-3.06,3.16-6.21,6.15-9.42,8.99c-4.83-3.58-9.66-7.16-14.5-10.75
					c-5.19-3.85-10.38-7.69-15.56-11.54c-17.11-12.69-34.23-25.37-51.34-38.05c3.22-2.83,6.36-5.83,9.42-8.98
					c22.99-23.71,37.41-52.13,41.7-82.2c4.67-32.79-3.32-60.95-23.11-81.45c-0.91-0.96-1.84-1.89-2.79-2.79
					c27.13,20.11,54.27,40.22,81.4,60.33c0.95,0.9,1.88,1.84,2.79,2.79c19.79,20.5,27.78,48.67,23.11,81.45
					C1006.14,455.21,991.72,483.63,968.73,507.34z"/>
			</g>
			<g>
				<path class="st1" d="M852.14,139.84c11.11,0,21.41,2.74,30.62,8.14c17.07,10.28,26.91,27.65,28.1,49.12
					c1.07,19.45-5.08,38.96-17.79,56.43l-9.47,13.21c8.24,4.14,15.74,9.7,22.32,16.6c19.79,20.5,27.78,48.67,23.11,81.45
					c-4.28,30.07-18.7,58.49-41.7,82.2c-3.06,3.16-6.21,6.15-9.42,8.99c-9.96-7.68-22.11-11.69-35.61-11.69
					c-3.4,0-6.91,0.26-10.43,0.78l-159.36,23.45c-13.87,2.04-27.09,7.79-38.9,16.83c-5.29-2.72-11.03-4.59-17.13-5.56
					c-1.64-3.05-3.03-6.29-4.16-9.69c-1.85-5.6-2.98-11.65-3.33-18.05c-1.08-19.34,4.98-38.79,17.5-56.23l9.6-13.37
					c-8.18-4.08-15.63-9.53-22.18-16.29c-19.87-20.95-27.74-49.12-23.08-81.81c4.06-28.5,17.16-55.47,38-78.28
					c1.14-1.25,2.31-2.49,3.5-3.72c22.88-23.59,50.17-38.28,78.92-42.52c5.53-0.81,10.99-1.23,16.23-1.23
					c21.29,0,40.24,6.77,55.3,19.68c11.77-16.24,27.33-28.07,45.06-34.23C836.49,141.19,844.44,139.84,852.14,139.84z"/>
			</g>
			<g>
				<polygon class="st1" points="716.56,708.8 797.96,769.13 793.74,798.79 712.34,738.45 				"/>
			</g>
			<g>
				<path class="st1" d="M671.99,867.86l-81.4-60.33c9.75,7.23,21.6,11,34.75,11c3.44,0,7.01-0.27,10.6-0.79
					c18.37-2.71,35.67-11.97,50.04-26.77c14.48-14.93,23.59-33.08,26.36-52.51l81.4,60.33c-2.77,19.43-11.88,37.58-26.36,52.51
					c-14.36,14.81-31.67,24.07-50.04,26.77c-3.59,0.52-7.16,0.79-10.6,0.79C693.59,878.86,681.75,875.08,671.99,867.86z"/>
			</g>
			<g>
				<polygon class="st1" points="777.51,699.83 858.91,760.16 797.96,769.13 716.56,708.8 				"/>
			</g>
			<g>
				<path class="st1" d="M851.18,586.53l81.4,60.33c3.6,10.26,4.62,21.86,2.86,34.16c-2.75,19.31-11.86,37.41-26.33,52.34
					c-14.76,14.97-32,24.11-50.21,26.79l-81.4-60.33c18.21-2.69,35.45-11.82,50.21-26.8c14.48-14.93,23.58-33.03,26.33-52.34
					C855.8,608.39,854.79,596.79,851.18,586.53z"/>
			</g>
			<g>
				<path class="st1" d="M842.3,444.3c13.49,0,25.65,4.02,35.61,11.69c2.24,1.73,4.38,3.64,6.39,5.74
					c13.27,13.84,18.87,33.4,15.78,55.11c-2.75,19.32-11.86,37.42-26.35,52.35c-7.16,7.26-14.63,12.97-22.54,17.34
					c3.6,10.26,4.62,21.86,2.86,34.16c-2.75,19.31-11.86,37.41-26.33,52.34c-14.76,14.97-32,24.11-50.21,26.8l-60.95,8.97
					l-4.22,29.66c-2.77,19.43-11.88,37.58-26.36,52.51c-14.36,14.81-31.67,24.07-50.04,26.77c-3.59,0.52-7.16,0.79-10.6,0.79
					c-16.55,0-31.04-5.98-41.88-17.3c-13.24-13.79-18.83-33.44-15.72-55.26l3.1-21.75l25.12-176.38
					c2.74-19.24,11.78-37.27,26.16-52.16c3.65-3.81,7.49-7.25,11.49-10.31c11.81-9.04,25.03-14.79,38.9-16.83l159.36-23.45
					C835.39,444.56,838.9,444.3,842.3,444.3z"/>
			</g>
		</g>
	</g>
	<g>
		<g class="st0">
			<g>
				<path class="st2" d="M227.37,514.53l-81.4-60.33c4.17,3.09,8.93,5.22,14.14,6.33l81.4,60.33
					C236.31,519.74,231.55,517.62,227.37,514.53z"/>
			</g>
			<g>
				<path class="st2" d="M213.26,613.68l-81.4-60.33c6.39,4.73,14.16,7.21,22.83,7.21c2.35,0,4.8-0.18,7.27-0.55l81.4,60.33
					c-2.47,0.37-4.92,0.55-7.27,0.55C227.42,620.89,219.65,618.42,213.26,613.68z"/>
			</g>
			<g>
				<polygon class="st2" points="336.76,340.14 418.17,400.47 403.3,402.67 321.9,342.33 				"/>
			</g>
			<g>
				<path class="st2" d="M469.94,351.82c-13.57-10.06-27.14-20.12-40.71-30.18c-13.56-10.05-27.13-20.11-40.69-30.16
					c0.49-1.97,0.88-3.96,1.16-5.96c2.07-14.53-1.44-27.04-10.18-36.22c-1.54-1.63-3.18-3.1-4.93-4.4l81.4,60.33
					c1.75,1.3,3.4,2.77,4.93,4.4c8.74,9.18,12.25,21.69,10.18,36.22C470.82,347.87,470.43,349.86,469.94,351.82z"/>
			</g>
			<g>
				<path class="st2" d="M388.54,291.49l81.4,60.33c-2.71,5.46-5,11.04-6.87,16.76l-81.4-60.33
					C383.54,302.53,385.83,296.94,388.54,291.49z"/>
			</g>
			<g>
				<path class="st2" d="M452.89,381.89c-9.98,10.28-21.99,16.71-34.73,18.58l-81.4-60.33c12.74-1.87,24.75-8.3,34.73-18.58
					c4-4.13,7.41-8.59,10.18-13.31l81.4,60.33C460.3,373.29,456.9,377.76,452.89,381.89z"/>
			</g>
			<g>
				<path class="st2" d="M352.86,354.95l81.4,60.33c3.19,2.37,6.23,5.05,9.09,8.03c3.22,3.35,6.06,6.95,8.53,10.78l-81.4-60.33
					c-2.47-3.83-5.31-7.42-8.53-10.78C359.09,359.99,356.06,357.32,352.86,354.95z"/>
			</g>
			<g>
				<polygon class="st2" points="273.55,543.59 354.95,603.93 243.37,620.35 161.97,560.01 				"/>
			</g>
			<g>
				<polygon class="st2" points="370.48,373.75 451.88,434.09 444.14,488.47 362.74,428.13 				"/>
			</g>
			<g>
				<path class="st2" d="M476.72,319.54l81.4,60.33c-0.17,0.03-0.46,0.07-1.38,1.01c-0.4,0.41-0.59,0.69-0.66,0.79l-81.4-60.33
					c0.07-0.1,0.26-0.38,0.66-0.79C476.26,319.61,476.55,319.57,476.72,319.54z"/>
			</g>
			<g>
				<path class="st2" d="M362.74,428.13l81.4,60.33c-2.44,17.11-0.88,32.71,4.51,46.23l-81.4-60.33
					C361.86,460.85,360.3,445.24,362.74,428.13z"/>
			</g>
			<g>
				<path class="st2" d="M425.43,565.79c-20.85,21.49-44.56,34.33-70.48,38.14l-81.4-60.33c25.92-3.81,49.64-16.64,70.48-38.14
					c9.46-9.76,17.22-20.15,23.22-31.1l81.4,60.33C442.64,545.64,434.89,556.03,425.43,565.79z"/>
			</g>
			<g>
				<path class="st2" d="M351.89,237.73c10.97,0,20.52,4,27.63,11.58c8.74,9.18,12.25,21.69,10.18,36.22
					c-0.29,2.01-0.67,4-1.16,5.96c-2.71,5.46-5,11.04-6.87,16.76c-2.77,4.71-6.18,9.18-10.18,13.31
					c-9.98,10.28-21.99,16.71-34.73,18.58l-14.86,2.2c15.64,2.28,29.08,9.2,40.05,20.64c3.22,3.35,6.06,6.95,8.53,10.78l-7.75,54.38
					c-2.44,17.11-0.88,32.71,4.51,46.23c-6.01,10.95-13.76,21.34-23.22,31.1c-20.85,21.49-44.56,34.33-70.48,38.14l-111.58,16.42
					c-2.47,0.37-4.92,0.55-7.27,0.55c-10.92,0-20.4-3.92-27.49-11.32c-8.79-9.17-12.34-21.78-10.25-36.48
					c1.88-13.22,8.19-25.68,18.22-36.03c7.38-7.61,15.87-13.1,24.94-16.21c-7.26-1.55-13.65-5.07-18.78-10.43
					c-8.8-9.17-12.35-21.74-10.27-36.31l14.12-99.16c1.88-13.19,8.14-25.61,18.13-35.94c10.01-10.45,22.04-16.96,34.82-18.84
					l146.56-21.57C347.15,237.91,349.56,237.73,351.89,237.73z"/>
			</g>
			<g>
				<path class="st2" d="M274.09,660.94l81.4,60.33c-5-3.7-10.76-5.45-17.79-5.45c-2.25,0-4.67,0.18-7.18,0.56
					c-13.57,1.99-25.7,8.7-37.08,20.5c-11.37,11.72-17.84,24.17-19.82,38.11c-1.81,12.72,0.65,22.1,7.77,29.51
					c1.25,1.31,2.55,2.46,3.91,3.47l-81.4-60.33c-1.36-1.01-2.66-2.16-3.91-3.47c-7.12-7.41-9.58-16.79-7.77-29.51
					c1.99-13.95,8.46-26.39,19.82-38.11c11.38-11.8,23.5-18.51,37.08-20.5c2.51-0.38,4.92-0.56,7.18-0.56
					C263.33,655.48,269.09,657.23,274.09,660.94z"/>
			</g>
			<g>
				<polygon class="st2" points="535.62,310.88 617.02,371.22 558.13,379.87 476.72,319.54 				"/>
			</g>
			<g>
				<polygon class="st2" points="474.69,321.34 556.09,381.68 542.71,475.59 461.31,415.25 				"/>
			</g>
			<g>
				<path class="st2" d="M341.7,572.25l81.4,60.33c4.74,3.51,9.23,7.49,13.47,11.93l-81.4-60.33
					C350.93,579.74,346.44,575.76,341.7,572.25z"/>
			</g>
			<g>
				<path class="st2" d="M605.72,220.65l81.4,60.33c3.19,2.37,6.22,5.04,9.09,8.03c5,5.22,9.11,11.03,12.3,17.36l-81.4-60.33
					c-3.19-6.34-7.29-12.15-12.3-17.36C611.94,225.7,608.91,223.02,605.72,220.65z"/>
			</g>
			<g>
				<path class="st2" d="M695.63,344.69c-27.13-20.12-54.26-40.23-81.4-60.33c1.92-13.49,6.23-26.29,12.88-38.31l81.4,60.33
					C701.86,318.4,697.55,331.2,695.63,344.69z"/>
			</g>
			<g>
				<path class="st2" d="M472.62,565.82l-81.4-60.33c12.06,8.94,26.44,13.45,42.91,13.45c4.61,0,9.43-0.37,14.35-1.09l81.4,60.33
					c-4.92,0.72-9.74,1.09-14.35,1.09C499.06,579.27,484.68,574.75,472.62,565.82z"/>
			</g>
			<g>
				<path class="st2" d="M355.17,584.18l81.4,60.33c10.23,10.61,17.87,22.68,22.91,36.13l-81.4-60.33
					C373.04,606.86,365.4,594.79,355.17,584.18z"/>
			</g>
			<g>
				<path class="st2" d="M708.54,402.25c-27.13-20.11-54.27-40.22-81.4-60.33c-11.67-15.21-16.13-34.95-12.91-57.56l81.4,60.33
					C692.4,367.3,696.86,387.04,708.54,402.25z"/>
			</g>
			<g>
				<path class="st2" d="M708.54,402.25c0.22,0.29,0.45,0.58,0.67,0.86l-81.4-60.33c-0.23-0.29-0.45-0.57-0.67-0.86
					c25.11,18.62,50.23,37.23,75.34,55.84c1.01,0.75,2.01,1.49,3.02,2.24c0.12,0.09,0.28,0.21,0.4,0.29
					c0.24,0.17,0.55,0.41,0.79,0.58c0.23,0.17,0.54,0.4,0.77,0.57c0.22,0.16,0.51,0.38,0.74,0.54
					C708.29,402.07,708.45,402.16,708.54,402.25z"/>
			</g>
			<g>
				<polygon class="st2" points="512.28,508.45 593.68,568.79 529.88,578.18 448.48,517.84 				"/>
			</g>
			<g>
				<polygon class="st2" points="627.81,342.78 709.21,403.12 701.47,457.48 620.07,397.15 				"/>
			</g>
			<g>
				<polygon class="st2" points="378.08,620.31 459.48,680.64 440.12,816.54 358.72,756.2 				"/>
			</g>
			<g>
				<path class="st2" d="M355.17,584.18c10.23,10.61,17.87,22.68,22.91,36.13L358.72,756.2c-8.5,14.18-19,27.74-31.46,40.59
					c-31.46,32.42-67.24,51.78-106.38,57.55c-7.41,1.09-14.67,1.65-21.59,1.65c-30.64,0-56.38-10.58-76.52-31.45
					c-24.82-26.03-34.33-60.44-28.36-102.37c5.8-40.69,24.72-77.79,56.23-110.28c31.57-32.56,67.38-51.99,106.41-57.72
					c7.4-1.09,14.67-1.65,21.59-1.65C309.38,552.52,335.12,563.17,355.17,584.18z M266.14,731.98c11.25-11.6,17.71-24.04,19.7-37.99
					c1.81-12.72-0.65-22.1-7.77-29.52c-5.89-6.13-12.8-8.98-21.77-8.98c-2.25,0-4.67,0.18-7.18,0.56
					c-13.57,1.99-25.7,8.7-37.08,20.5c-11.37,11.72-17.84,24.17-19.82,38.11c-1.81,12.72,0.65,22.1,7.77,29.51
					c5.79,6.05,12.65,8.86,21.58,8.86c2.27,0,4.7-0.19,7.24-0.56C242.44,750.46,254.65,743.76,266.14,731.98L266.14,731.98z"/>
			</g>
			<g>
				<path class="st2" d="M217.33,896.46l-81.4-60.33c17.8,13.19,39.04,19.86,63.36,19.86c6.92,0,14.18-0.56,21.59-1.65
					c39.14-5.76,74.92-25.12,106.38-57.55c12.46-12.85,22.96-26.41,31.46-40.59l81.4,60.33c-8.5,14.18-19,27.74-31.46,40.59
					c-31.46,32.42-67.24,51.79-106.38,57.55c-7.41,1.09-14.67,1.65-21.59,1.65C256.37,916.32,235.13,909.65,217.33,896.46z"/>
			</g>
			<g>
				<path class="st2" d="M620.07,397.15l81.4,60.33c-3.85,27-16.41,51.61-37.31,73.17c-20.85,21.49-44.56,34.33-70.48,38.14
					l-81.4-60.33c25.92-3.81,49.64-16.65,70.48-38.14C603.66,448.76,616.22,424.14,620.07,397.15z"/>
			</g>
			<g>
				<path class="st2" d="M762.65,195.49l81.4,60.33c2.94,2.18,5.73,4.66,8.37,7.42c4.34,4.49,7.94,9.47,10.77,14.88l-81.4-60.33
					c-2.83-5.42-6.43-10.4-10.77-14.89C768.38,200.14,765.59,197.67,762.65,195.49z"/>
			</g>
			<g>
				<path class="st2" d="M721.13,414.64l-81.4-60.33c10.04,7.44,21.84,11.52,35.25,12.16l81.4,60.33
					C742.97,426.16,731.17,422.08,721.13,414.64z"/>
			</g>
			<g>
				<polygon class="st2" points="874.98,240.58 956.38,300.91 926.16,343.04 844.76,282.7 				"/>
			</g>
			<g>
				<polygon class="st2" points="738.06,431.46 819.46,491.8 800.76,517.87 719.36,457.54 				"/>
			</g>
			<g>
				<path class="st2" d="M848.61,164.6c7.36,0,14.21,1.83,20.34,5.43c11.07,6.67,17.5,18.05,18.27,32.15
					c0.73,13.14-3.51,26.42-12.24,38.4l-30.22,42.13c17.21,0.84,31.74,7.36,43.23,19.44c15.14,15.65,21.24,37.32,17.63,62.66
					c-3.46,24.32-14.76,46.49-33.57,65.89c-18.63,19.21-39.92,30.68-63.25,34.11c-4.44,0.66-8.81,0.99-12.99,0.99
					c-18.86,0-34.67-6.52-47-19.38c-4.33-4.52-7.92-9.53-10.76-14.96l-18.7,26.07c-10.82,14.99-25.12,24.14-41.41,26.54
					c-2.35,0.35-4.72,0.52-6.99,0.52c-7.3,0-14.04-1.77-20.02-5.26c-11.38-7.11-17.53-18.18-18.31-32.35
					c-0.73-13.07,3.43-26.32,12.02-38.28l30.34-42.24c-17.15-0.82-31.68-7.26-43.24-19.17c-1.48-1.56-2.74-3.01-3.93-4.51
					c-12.18-15.32-16.87-35.39-13.59-58.43c1.92-13.49,6.23-26.29,12.88-38.31c5.34-9.65,12.18-18.8,20.51-27.38
					c18.76-19.34,40.1-30.88,63.44-34.32c4.41-0.65,8.75-0.98,12.9-0.98c18.9,0,34.73,6.57,47.06,19.54
					c4.34,4.49,7.94,9.47,10.77,14.89l18.65-25.95c8.26-11.61,19.22-20.04,31.71-24.38C837.97,165.52,843.41,164.6,848.61,164.6z"/>
			</g>
			<g>
				<path class="st2" d="M614.22,284.35c-3.28,23.04,1.41,43.1,13.59,58.43l-7.74,54.37c-3.84,27-16.4,51.61-37.31,73.17
					c-20.85,21.49-44.56,34.33-70.48,38.14l-63.8,9.39c-4.92,0.72-9.74,1.09-14.35,1.09c-20.84,0-38.34-7.23-52.02-21.5
					c-6.47-6.74-11.44-14.49-14.87-23.07c-5.39-13.51-6.95-29.12-4.51-46.23l7.75-54.38l6.38-44.78c1.01-7.08,2.62-13.99,4.81-20.73
					c1.87-5.72,4.16-11.3,6.87-16.76c6.29-12.64,14.85-24.57,25.63-35.68c20.85-21.49,44.55-34.33,70.47-38.14l63.81-9.39
					c4.9-0.72,9.73-1.09,14.34-1.09c20.84,0,38.34,7.23,52.02,21.49c5,5.22,9.11,11.03,12.3,17.36
					C620.46,258.06,616.15,270.87,614.22,284.35z M521.4,405.76c0.68-0.69,0.86-1.06,0.87-1.06l13.35-93.82l-58.89,8.66
					c-0.17,0.03-0.46,0.07-1.38,1.01c-0.4,0.41-0.59,0.69-0.66,0.79l-13.38,93.91l58.89-8.67
					C520.49,406.54,520.66,406.52,521.4,405.76L521.4,405.76z"/>
			</g>
			<g>
				<path class="st2" d="M729.55,537.78l-81.4-60.33c0.89,0.66,1.82,1.29,2.79,1.9l81.4,60.33
					C731.37,539.07,730.44,538.44,729.55,537.78z"/>
			</g>
			<g>
				<path class="st2" d="M711.9,575.58c0.72,0.75,1.4,1.52,2.04,2.31l-81.4-60.33c-0.65-0.79-1.33-1.56-2.04-2.31
					c-1.49-1.56-3.08-2.96-4.77-4.21l81.4,60.33C708.81,572.62,710.41,574.03,711.9,575.58z"/>
			</g>
			<g>
				<path class="st2" d="M713.94,577.89c-7.12,9.08-11.65,19.42-13.19,30.28l-81.4-60.33c1.55-10.86,6.07-21.2,13.19-30.28
					C656.96,535.66,689.52,559.79,713.94,577.89z"/>
			</g>
			<g>
				<polygon class="st2" points="460.33,722.02 541.74,782.35 534.45,833.52 453.05,773.18 				"/>
			</g>
			<g>
				<path class="st2" d="M451.54,881.61l-81.4-60.33c6.4,4.74,14.18,7.22,22.84,7.22c2.35,0,4.8-0.18,7.27-0.55
					c12.64-1.86,24.59-8.28,34.56-18.57c10.03-10.34,16.34-22.86,18.24-36.19l81.4,60.33c-1.9,13.33-8.21,25.85-18.24,36.19
					c-9.97,10.29-21.92,16.71-34.56,18.57c-2.47,0.37-4.92,0.55-7.27,0.55C465.72,888.82,457.94,886.35,451.54,881.61z"/>
			</g>
			<g>
				<polygon class="st2" points="587.85,606.18 669.25,666.52 649.42,669.44 568.02,609.1 				"/>
			</g>
			<g>
				<path class="st2" d="M871.98,172.05l81.4,60.33c9.22,6.83,14.55,17.36,15.24,30.13c0.73,13.14-3.51,26.42-12.24,38.4
					l-81.4-60.33c8.73-11.99,12.97-25.27,12.24-38.4C886.52,189.41,881.19,178.88,871.98,172.05z"/>
			</g>
			<g>
				<polygon class="st2" points="619.35,547.84 700.75,608.17 693.86,656.52 612.46,596.18 				"/>
			</g>
			<g>
				<path class="st2" d="M612.46,596.18l81.4,60.33c-7.64,5.32-15.98,8.73-24.61,10l-81.4-60.33
					C596.48,604.91,604.83,601.5,612.46,596.18z"/>
			</g>
			<g>
				<path class="st2" d="M719.36,457.54l81.4,60.33c-10.82,14.99-25.12,24.14-41.41,26.54c-2.35,0.35-4.72,0.52-6.99,0.52
					c-7.3,0-14.04-1.77-20.02-5.26l-81.4-60.33c5.99,3.49,12.73,5.26,20.02,5.26c2.27,0,4.64-0.18,6.99-0.52
					C694.24,481.68,708.54,472.52,719.36,457.54z"/>
			</g>
			<g>
				<polygon class="st2" points="541.82,710.03 623.22,770.37 541.74,782.35 460.33,722.02 				"/>
			</g>
			<g>
				<path class="st2" d="M602.88,503.77c10.88,0,20.42,3.97,27.62,11.48c0.72,0.75,1.4,1.52,2.04,2.31
					c-7.12,9.08-11.65,19.42-13.19,30.28l-6.89,48.35c-7.64,5.32-15.98,8.73-24.61,10l-19.83,2.92c6.18,1.74,11.69,4.98,16.28,9.61
					c9.01,9.39,12.55,22.02,10.46,36.69c-1.88,13.22-8.19,25.68-18.22,36.03c-10.23,10.37-22.17,16.75-34.72,18.6l-81.49,11.99
					l-7.29,51.16c-1.9,13.33-8.21,25.85-18.24,36.19c-9.97,10.29-21.92,16.71-34.56,18.57c-2.47,0.37-4.92,0.55-7.27,0.55
					c-10.89,0-20.39-3.91-27.49-11.32c-8.79-9.17-12.34-21.79-10.25-36.48l3.49-24.49l19.36-135.89l5.38-37.76
					c1.88-13.19,8.15-25.61,18.13-35.94c10.01-10.45,22.04-16.97,34.83-18.85l159.35-23.45
					C598.18,503.95,600.58,503.77,602.88,503.77z"/>
			</g>
			<g>
				<path class="st2" d="M579.95,614.94l81.4,60.33c1.53,1.13,2.98,2.39,4.35,3.78c9.01,9.39,12.55,22.02,10.46,36.69
					c-1.88,13.22-8.19,25.68-18.22,36.03c-10.23,10.37-22.17,16.75-34.72,18.59l-81.4-60.33c12.55-1.85,24.49-8.22,34.72-18.6
					c10.03-10.35,16.34-22.81,18.22-36.03c2.09-14.67-1.45-27.3-10.46-36.69C582.93,617.33,581.48,616.07,579.95,614.94z"/>
			</g>
			<g>
				<path class="st2" d="M879.64,294.74l81.4,60.33c2.94,2.18,5.73,4.65,8.35,7.41c15.14,15.65,21.24,37.32,17.63,62.66
					c-3.46,24.32-14.76,46.49-33.57,65.89c-18.63,19.21-39.92,30.68-63.25,34.11c-4.44,0.66-8.81,0.99-12.99,0.99
					c-14.92,0-27.94-4.08-38.83-12.15l-81.4-60.33c10.89,8.07,23.91,12.15,38.83,12.15c4.18,0,8.55-0.33,12.99-0.99
					c23.34-3.43,44.62-14.91,63.25-34.11c18.81-19.4,30.11-41.57,33.57-65.89c3.61-25.34-2.49-47.01-17.63-62.66
					C885.37,299.39,882.58,296.92,879.64,294.74z"/>
			</g>
			<g>
				<polygon class="st2" points="696.23,687.3 777.63,747.64 770.34,798.79 688.94,738.45 				"/>
			</g>
			<g>
				<path class="st2" d="M687.44,846.89l-81.4-60.33c6.39,4.74,14.17,7.22,22.83,7.22c2.35,0,4.8-0.19,7.27-0.55
					c12.63-1.86,24.59-8.28,34.56-18.57c10.03-10.34,16.34-22.86,18.24-36.2l81.4,60.33c-1.9,13.34-8.21,25.86-18.24,36.2
					c-9.97,10.29-21.93,16.71-34.56,18.57c-2.47,0.36-4.92,0.55-7.27,0.55C701.61,854.1,693.84,851.63,687.44,846.89z"/>
			</g>
			<g>
				<polygon class="st2" points="823.73,571.47 905.13,631.8 885.3,634.72 803.9,574.39 				"/>
			</g>
			<g>
				<path class="st2" d="M861.64,476.34l81.4,60.33c1.68,1.24,3.26,2.64,4.75,4.18c8.8,9.19,12.36,21.75,10.28,36.32
					c-1.89,13.24-8.19,25.69-18.22,36.03c-10.23,10.37-22.17,16.75-34.72,18.6l-81.4-60.33c12.55-1.85,24.49-8.22,34.72-18.6
					c10.03-10.34,16.33-22.8,18.22-36.03c2.08-14.57-1.48-27.13-10.28-36.32C864.9,478.97,863.32,477.58,861.64,476.34z"/>
			</g>
			<g>
				<polygon class="st2" points="777.7,675.32 859.1,735.65 777.63,747.64 696.23,687.3 				"/>
			</g>
			<g>
				<path class="st2" d="M838.77,469.06c10.87,0,20.41,3.97,27.62,11.46c8.8,9.19,12.36,21.75,10.28,36.32
					c-1.89,13.24-8.19,25.69-18.22,36.03c-10.23,10.37-22.17,16.75-34.72,18.6l-19.83,2.92c6.19,1.74,11.7,4.98,16.29,9.61
					c9,9.39,12.55,22,10.46,36.69c-1.88,13.22-8.19,25.68-18.22,36.03c-10.23,10.37-22.18,16.75-34.73,18.6l-81.48,11.99
					l-7.29,51.15c-1.9,13.34-8.21,25.86-18.24,36.2c-9.97,10.29-21.93,16.71-34.56,18.57c-2.47,0.36-4.92,0.55-7.27,0.55
					c-10.89,0-20.38-3.92-27.49-11.33c-8.79-9.16-12.34-21.78-10.25-36.48l21.33-149.78l6.89-48.35
					c1.55-10.86,6.07-21.2,13.19-30.28c1.53-1.95,3.18-3.84,4.94-5.66c10-10.45,22.04-16.97,34.83-18.85l159.35-23.45
					C834.07,469.23,836.47,469.06,838.77,469.06z"/>
			</g>
			<g>
				<path class="st2" d="M815.84,580.23l81.4,60.33c1.53,1.13,2.98,2.39,4.35,3.78c9,9.39,12.55,22,10.46,36.69
					c-1.88,13.22-8.19,25.68-18.22,36.03c-10.23,10.37-22.18,16.75-34.73,18.59l-81.4-60.33c12.55-1.85,24.5-8.22,34.73-18.6
					c10.03-10.35,16.34-22.81,18.22-36.03c2.09-14.68-1.46-27.3-10.46-36.69C818.82,582.62,817.37,581.36,815.84,580.23z"/>
			</g>
		</g>
	</g>
	<g>
		<g>
			<g class="st0">
				<g>
					<path class="st3" d="M200.79,495.36l-54.27-40.22c4.17,3.09,8.93,5.22,14.14,6.33l54.27,40.22
						C209.72,500.58,204.96,498.45,200.79,495.36z"/>
				</g>
				<g>
					<path class="st3" d="M186.68,594.52l-54.27-40.22c6.39,4.73,14.16,7.21,22.83,7.21c2.35,0,4.8-0.18,7.27-0.55l54.27,40.22
						c-2.47,0.37-4.92,0.55-7.27,0.55C200.84,601.73,193.07,599.25,186.68,594.52z"/>
				</g>
				<g>
					<polygon class="st3" points="337.32,341.08 391.58,381.31 376.72,383.5 322.45,343.28 					"/>
				</g>
				<g>
					<path class="st3" d="M443.36,332.66c-9.05-6.71-18.09-13.41-27.14-20.12c-9.04-6.7-18.08-13.4-27.13-20.1
						c0.49-1.97,0.88-3.96,1.16-5.96c2.07-14.53-1.44-27.04-10.18-36.22c-1.53-1.63-3.18-3.1-4.93-4.4l54.27,40.22
						c1.75,1.3,3.4,2.77,4.93,4.4c8.74,9.18,12.25,21.69,10.18,36.22C444.24,328.7,443.85,330.69,443.36,332.66z"/>
				</g>
				<g>
					<path class="st3" d="M389.09,292.43l54.27,40.22c-2.71,5.46-5,11.04-6.87,16.76l-54.27-40.22
						C384.09,303.47,386.38,297.89,389.09,292.43z"/>
				</g>
				<g>
					<path class="st3" d="M426.31,362.72c-9.98,10.28-21.99,16.71-34.73,18.58l-54.27-40.22c12.74-1.87,24.75-8.3,34.73-18.58
						c4-4.13,7.41-8.59,10.18-13.31l54.27,40.22C433.72,354.13,430.31,358.59,426.31,362.72z"/>
				</g>
				<g>
					<path class="st3" d="M353.41,355.89l54.27,40.22c3.19,2.37,6.23,5.05,9.09,8.03c3.22,3.35,6.06,6.95,8.53,10.78l-54.27-40.22
						c-2.47-3.83-5.31-7.42-8.53-10.78C359.64,360.94,356.61,358.26,353.41,355.89z"/>
				</g>
				<g>
					<polygon class="st3" points="274.1,544.54 328.36,584.76 216.78,601.18 162.52,560.96 					"/>
				</g>
				<g>
					<polygon class="st3" points="371.03,374.7 425.3,414.92 417.55,469.3 363.29,429.08 					"/>
				</g>
				<g>
					<path class="st3" d="M477.28,320.48l54.27,40.22c-0.17,0.03-0.46,0.07-1.38,1.01c-0.4,0.41-0.59,0.69-0.66,0.79l-54.27-40.22
						c0.07-0.1,0.26-0.38,0.66-0.79C476.81,320.55,477.1,320.52,477.28,320.48z"/>
				</g>
				<g>
					<path class="st3" d="M363.29,429.08l54.27,40.22c-2.44,17.11-0.88,32.71,4.51,46.23L367.8,475.3
						C362.41,461.79,360.85,446.18,363.29,429.08z"/>
				</g>
				<g>
					<path class="st3" d="M398.84,546.62c-20.85,21.49-44.56,34.33-70.48,38.14l-54.27-40.22c25.92-3.81,49.64-16.65,70.48-38.14
						c9.46-9.76,17.22-20.14,23.22-31.1l54.27,40.22C416.06,526.48,408.31,536.86,398.84,546.62z"/>
				</g>
				<g>
					<path class="st3" d="M352.44,238.67c10.97,0,20.52,4,27.63,11.58c8.74,9.18,12.25,21.69,10.18,36.22
						c-0.29,2.01-0.67,4-1.16,5.96c-2.71,5.46-5,11.04-6.87,16.76c-2.77,4.71-6.18,9.18-10.18,13.31
						c-9.98,10.28-21.99,16.71-34.73,18.58l-14.86,2.2c15.64,2.28,29.08,9.2,40.05,20.64c3.22,3.35,6.06,6.95,8.53,10.78
						l-7.75,54.38c-2.44,17.11-0.88,32.71,4.51,46.23c-6.01,10.95-13.76,21.34-23.22,31.1c-20.85,21.49-44.56,34.33-70.48,38.14
						l-111.58,16.42c-2.47,0.37-4.92,0.55-7.27,0.55c-10.92,0-20.4-3.92-27.49-11.32c-8.79-9.17-12.34-21.78-10.25-36.48
						c1.88-13.22,8.19-25.68,18.22-36.03c7.38-7.61,15.87-13.1,24.94-16.21c-7.26-1.55-13.65-5.07-18.78-10.43
						c-8.8-9.17-12.35-21.74-10.27-36.31l14.12-99.16c1.88-13.19,8.14-25.61,18.13-35.94c10.01-10.45,22.04-16.96,34.82-18.84
						l146.56-21.57C347.7,238.85,350.11,238.67,352.44,238.67z"/>
				</g>
				<g>
					<path class="st3" d="M274.64,661.88l54.27,40.22c-5-3.7-10.76-5.45-17.79-5.45c-2.25,0-4.67,0.18-7.18,0.56
						c-13.57,1.99-25.7,8.7-37.08,20.5c-11.37,11.72-17.84,24.17-19.82,38.11c-1.81,12.72,0.65,22.1,7.77,29.51
						c1.25,1.31,2.55,2.46,3.91,3.47l-54.27-40.22c-1.36-1.01-2.66-2.16-3.91-3.47c-7.12-7.41-9.58-16.79-7.77-29.51
						c1.99-13.95,8.46-26.39,19.82-38.11c11.38-11.8,23.5-18.51,37.08-20.5c2.51-0.38,4.92-0.56,7.18-0.56
						C263.88,656.43,269.64,658.18,274.64,661.88z"/>
				</g>
				<g>
					<polygon class="st3" points="536.17,311.83 590.43,352.05 531.54,360.71 477.28,320.48 					"/>
				</g>
				<g>
					<polygon class="st3" points="475.24,322.29 529.51,362.51 516.13,456.42 461.86,416.2 					"/>
				</g>
				<g>
					<path class="st3" d="M342.25,573.19l54.27,40.22c4.74,3.51,9.23,7.49,13.47,11.93l-54.27-40.22
						C351.48,580.68,346.99,576.7,342.25,573.19z"/>
				</g>
				<g>
					<path class="st3" d="M606.27,221.59l54.27,40.22c3.19,2.37,6.23,5.04,9.09,8.03c5,5.22,9.11,11.03,12.3,17.36l-54.27-40.22
						c-3.19-6.33-7.29-12.15-12.3-17.36C612.49,226.64,609.46,223.96,606.27,221.59z"/>
				</g>
				<g>
					<path class="st3" d="M669.04,325.52c-22.41-16.63-31.54-23.39-54.27-40.22c1.92-13.49,6.23-26.29,12.88-38.31l54.27,40.22
						C675.27,299.23,670.96,312.03,669.04,325.52z"/>
				</g>
				<g>
					<path class="st3" d="M446.04,546.65l-54.27-40.22c12.06,8.94,26.44,13.45,42.91,13.45c4.61,0,9.43-0.37,14.35-1.09l54.27,40.22
						c-4.92,0.72-9.74,1.09-14.35,1.09C472.48,560.1,458.1,555.59,446.04,546.65z"/>
				</g>
				<g>
					<path class="st3" d="M355.72,585.12l54.27,40.22c10.23,10.61,17.87,22.68,22.91,36.13l-54.27-40.22
						C373.59,607.8,365.95,595.73,355.72,585.12z"/>
				</g>
				<g>
					<path class="st3" d="M681.96,383.09c-18.09-13.41-36.18-26.81-54.27-40.22c-11.67-15.21-16.13-34.95-12.91-57.56l54.27,40.22
						C665.82,348.13,670.28,367.87,681.96,383.09z"/>
				</g>
				<g>
					<path class="st3" d="M681.96,383.09c0.22,0.29,0.45,0.58,0.68,0.86l-54.27-40.22c-0.23-0.29-0.45-0.57-0.67-0.86
						c16.74,12.41,33.49,24.82,50.23,37.23c0.67,0.5,1.34,0.99,2.01,1.49c0.16,0.12,0.37,0.27,0.53,0.39
						c0.26,0.19,0.52,0.38,0.77,0.57c0.15,0.11,0.34,0.25,0.49,0.36C681.79,382.96,681.89,383.02,681.96,383.09z"/>
				</g>
				<g>
					<polygon class="st3" points="512.83,509.4 567.09,549.62 503.3,559.01 449.03,518.79 					"/>
				</g>
				<g>
					<polygon class="st3" points="628.36,343.73 682.63,383.95 674.89,438.32 620.62,398.09 					"/>
				</g>
				<g>
					<polygon class="st3" points="378.63,621.25 432.9,661.48 413.54,797.37 359.27,757.15 					"/>
				</g>
				<g>
					<path class="st3" d="M355.72,585.12c10.23,10.61,17.87,22.68,22.91,36.13l-19.36,135.89c-8.5,14.18-19,27.74-31.46,40.59
						c-31.46,32.42-67.25,51.78-106.38,57.54c-7.41,1.09-14.67,1.65-21.59,1.65c-30.64,0-56.38-10.58-76.52-31.45
						c-24.82-26.03-34.33-60.44-28.36-102.37c5.8-40.69,24.72-77.79,56.23-110.28c31.57-32.56,67.38-51.99,106.41-57.72
						c7.4-1.09,14.67-1.65,21.59-1.65C309.93,553.46,335.67,564.11,355.72,585.12z M266.69,732.92
						c11.25-11.6,17.71-24.04,19.7-37.99c1.81-12.72-0.65-22.1-7.77-29.52c-5.89-6.13-12.8-8.98-21.77-8.98
						c-2.25,0-4.67,0.18-7.18,0.56c-13.57,1.99-25.7,8.7-37.08,20.5c-11.37,11.72-17.84,24.17-19.82,38.11
						c-1.81,12.72,0.65,22.1,7.77,29.51c5.79,6.05,12.65,8.86,21.58,8.86c2.27,0,4.7-0.19,7.24-0.56
						C242.99,751.41,255.2,744.7,266.69,732.92L266.69,732.92z"/>
				</g>
				<g>
					<path class="st3" d="M190.75,877.29l-54.27-40.22c17.8,13.19,39.04,19.86,63.36,19.86c6.92,0,14.18-0.56,21.59-1.65
						c39.14-5.76,74.92-25.12,106.38-57.54c12.46-12.85,22.96-26.41,31.46-40.59l54.27,40.22c-8.5,14.18-19,27.74-31.46,40.59
						c-31.46,32.42-67.24,51.79-106.38,57.55c-7.41,1.09-14.67,1.65-21.59,1.65C229.79,897.15,208.55,890.48,190.75,877.29z"/>
				</g>
				<g>
					<path class="st3" d="M620.62,398.09l54.27,40.22c-3.85,27-16.4,51.61-37.31,73.17c-20.85,21.49-44.56,34.33-70.48,38.14
						l-54.27-40.22c25.92-3.81,49.64-16.64,70.48-38.14C604.21,449.7,616.77,425.09,620.62,398.09z"/>
				</g>
				<g>
					<path class="st3" d="M763.2,196.43l54.27,40.22c2.94,2.18,5.73,4.66,8.37,7.42c4.34,4.49,7.94,9.47,10.77,14.89l-54.27-40.22
						c-2.83-5.41-6.43-10.4-10.77-14.89C768.93,201.09,766.14,198.61,763.2,196.43z"/>
				</g>
				<g>
					<path class="st3" d="M694.54,395.47l-54.27-40.22c10.04,7.44,21.84,11.52,35.25,12.16l54.27,40.22
						C716.39,406.99,704.58,402.91,694.54,395.47z"/>
				</g>
				<g>
					<polygon class="st3" points="875.53,241.52 929.8,281.75 899.58,323.87 845.31,283.65 					"/>
				</g>
				<g>
					<polygon class="st3" points="738.61,432.41 792.87,472.63 774.18,498.7 719.91,458.48 					"/>
				</g>
				<g>
					<path class="st3" d="M849.16,165.54c7.36,0,14.21,1.83,20.34,5.43c11.07,6.67,17.5,18.05,18.27,32.15
						c0.73,13.14-3.51,26.42-12.24,38.4l-30.22,42.13c17.21,0.84,31.74,7.36,43.23,19.44c15.14,15.65,21.24,37.32,17.63,62.66
						c-3.46,24.32-14.76,46.49-33.57,65.89c-18.63,19.21-39.92,30.68-63.25,34.11c-4.44,0.66-8.81,0.99-12.99,0.99
						c-18.86,0-34.67-6.52-47-19.38c-4.33-4.52-7.92-9.53-10.76-14.96l-18.7,26.07c-10.82,14.99-25.12,24.14-41.41,26.54
						c-2.35,0.35-4.72,0.52-6.99,0.52c-7.3,0-14.04-1.77-20.02-5.26c-11.38-7.11-17.53-18.18-18.31-32.35
						c-0.73-13.07,3.43-26.32,12.02-38.28l30.34-42.24c-17.15-0.82-31.68-7.26-43.24-19.17c-1.48-1.56-2.74-3.01-3.93-4.51
						c-12.18-15.33-16.87-35.39-13.59-58.43c1.92-13.49,6.23-26.29,12.88-38.31c5.34-9.65,12.18-18.8,20.51-27.38
						c18.76-19.34,40.1-30.88,63.44-34.32c4.41-0.65,8.75-0.98,12.9-0.98c18.9,0,34.72,6.57,47.06,19.54
						c4.34,4.49,7.94,9.47,10.77,14.89l18.65-25.95c8.26-11.61,19.22-20.04,31.71-24.38C838.52,166.46,843.96,165.54,849.16,165.54z
						"/>
				</g>
				<g>
					<path class="st3" d="M614.77,285.3c-3.28,23.04,1.41,43.1,13.59,58.43l-7.74,54.37c-3.85,27-16.4,51.61-37.31,73.17
						c-20.85,21.49-44.56,34.33-70.48,38.14l-63.8,9.39c-4.91,0.72-9.74,1.09-14.35,1.09c-20.84,0-38.34-7.23-52.02-21.5
						c-6.47-6.74-11.44-14.49-14.87-23.07c-5.39-13.51-6.95-29.12-4.51-46.23l7.75-54.38l6.38-44.78
						c1.01-7.08,2.62-13.99,4.81-20.73c1.87-5.72,4.15-11.3,6.87-16.76c6.29-12.64,14.85-24.57,25.63-35.68
						c20.85-21.49,44.55-34.33,70.47-38.14l63.81-9.39c4.9-0.72,9.73-1.09,14.34-1.09c20.84,0,38.34,7.23,52.02,21.49
						c5,5.22,9.11,11.03,12.3,17.36C621.01,259.01,616.7,271.81,614.77,285.3z M521.95,406.71c0.68-0.69,0.86-1.06,0.87-1.06
						l13.35-93.82l-58.89,8.66c-0.17,0.03-0.46,0.07-1.38,1.01c-0.4,0.41-0.59,0.69-0.66,0.79l-13.38,93.91l58.89-8.67
						C521.05,407.49,521.21,407.46,521.95,406.71L521.95,406.71z"/>
				</g>
				<g>
					<path class="st3" d="M702.96,518.61l-54.27-40.22c0.89,0.66,1.82,1.29,2.79,1.9l54.27,40.22
						C704.78,519.9,703.85,519.27,702.96,518.61z"/>
				</g>
				<g>
					<path class="st3" d="M685.31,556.41c0.72,0.75,1.4,1.52,2.04,2.31l-54.27-40.22c-0.65-0.79-1.33-1.56-2.04-2.31
						c-1.49-1.56-3.08-2.96-4.77-4.21l54.27,40.22C682.23,553.45,683.82,554.86,685.31,556.41z"/>
				</g>
				<g>
					<path class="st3" d="M687.36,558.72c-7.12,9.08-11.64,19.42-13.19,30.28l-54.27-40.22c1.55-10.86,6.07-21.2,13.19-30.28
						C649.37,530.57,671.08,546.66,687.36,558.72z"/>
				</g>
				<g>
					<polygon class="st3" points="460.89,722.96 515.15,763.19 507.87,814.35 453.6,774.13 					"/>
				</g>
				<g>
					<path class="st3" d="M424.96,862.44l-54.27-40.22c6.4,4.74,14.18,7.22,22.84,7.22c2.35,0,4.8-0.18,7.27-0.55
						c12.64-1.86,24.59-8.28,34.56-18.57c10.03-10.34,16.34-22.86,18.24-36.19l54.27,40.22c-1.9,13.33-8.21,25.85-18.24,36.19
						c-9.97,10.29-21.92,16.71-34.56,18.57c-2.47,0.37-4.92,0.55-7.27,0.55C439.13,869.65,431.35,867.18,424.96,862.44z"/>
				</g>
				<g>
					<polygon class="st3" points="588.4,607.13 642.67,647.35 622.84,650.27 568.57,610.05 					"/>
				</g>
				<g>
					<path class="st3" d="M872.53,172.99l54.27,40.22c9.22,6.83,14.55,17.36,15.24,30.13c0.73,13.14-3.51,26.42-12.24,38.4
						l-54.27-40.22c8.73-11.99,12.97-25.27,12.24-38.4C887.07,190.35,881.74,179.82,872.53,172.99z"/>
				</g>
				<g>
					<polygon class="st3" points="619.9,548.78 674.17,589 667.28,637.35 613.01,597.13 					"/>
				</g>
				<g>
					<path class="st3" d="M613.01,597.13l54.27,40.22c-7.64,5.32-15.98,8.73-24.61,10l-54.27-40.22
						C597.03,605.86,605.38,602.45,613.01,597.13z"/>
				</g>
				<g>
					<path class="st3" d="M719.91,458.48l54.27,40.22c-10.82,14.98-25.12,24.14-41.41,26.54c-2.35,0.35-4.72,0.52-6.99,0.52
						c-7.3,0-14.04-1.77-20.02-5.26l-54.27-40.22c5.99,3.49,12.73,5.26,20.02,5.26c2.27,0,4.64-0.18,6.99-0.52
						C694.79,482.62,709.09,473.46,719.91,458.48z"/>
				</g>
				<g>
					<polygon class="st3" points="542.37,710.98 596.64,751.2 515.15,763.19 460.89,722.96 					"/>
				</g>
				<g>
					<path class="st3" d="M603.43,504.72c10.88,0,20.42,3.97,27.62,11.48c0.72,0.75,1.4,1.52,2.04,2.31
						c-7.12,9.08-11.65,19.42-13.19,30.28l-6.89,48.35c-7.64,5.32-15.98,8.73-24.61,10l-19.83,2.92c6.18,1.74,11.69,4.98,16.28,9.61
						c9.01,9.39,12.55,22.02,10.46,36.69c-1.88,13.22-8.19,25.68-18.22,36.03c-10.23,10.37-22.17,16.75-34.72,18.6l-81.49,11.99
						l-7.29,51.16c-1.9,13.33-8.21,25.85-18.24,36.19c-9.97,10.29-21.92,16.71-34.56,18.57c-2.47,0.37-4.92,0.55-7.27,0.55
						c-10.89,0-20.38-3.91-27.49-11.32c-8.79-9.17-12.34-21.79-10.25-36.48l3.49-24.49l19.36-135.89l5.38-37.76
						c1.88-13.19,8.15-25.61,18.13-35.94c10.01-10.45,22.04-16.97,34.83-18.85l159.35-23.45
						C598.73,504.89,601.13,504.72,603.43,504.72z"/>
				</g>
				<g>
					<path class="st3" d="M580.5,615.88l54.27,40.22c1.53,1.13,2.98,2.39,4.35,3.78c9.01,9.39,12.55,22.02,10.46,36.69
						c-1.88,13.22-8.19,25.68-18.22,36.03c-10.23,10.37-22.17,16.75-34.72,18.6l-54.27-40.22c12.55-1.85,24.49-8.22,34.72-18.6
						c10.03-10.35,16.34-22.81,18.22-36.03c2.09-14.67-1.45-27.3-10.46-36.69C583.48,618.28,582.03,617.02,580.5,615.88z"/>
				</g>
				<g>
					<path class="st3" d="M880.19,295.68l54.27,40.22c2.94,2.18,5.73,4.65,8.35,7.41c15.14,15.65,21.24,37.32,17.63,62.66
						c-3.46,24.32-14.76,46.49-33.57,65.89c-18.63,19.21-39.92,30.68-63.25,34.11c-4.44,0.66-8.81,0.99-12.99,0.99
						c-14.92,0-27.94-4.08-38.83-12.15l-54.27-40.22c10.89,8.07,23.91,12.15,38.83,12.15c4.18,0,8.55-0.33,12.99-0.99
						c23.34-3.43,44.62-14.91,63.25-34.11c18.81-19.4,30.11-41.57,33.57-65.89c3.61-25.34-2.49-47.01-17.63-62.66
						C885.92,300.33,883.13,297.86,880.19,295.68z"/>
				</g>
				<g>
					<polygon class="st3" points="696.78,688.25 751.04,728.47 743.76,779.62 689.49,739.4 					"/>
				</g>
				<g>
					<path class="st3" d="M660.86,827.72l-54.27-40.22c6.39,4.74,14.17,7.22,22.83,7.22c2.35,0,4.8-0.19,7.27-0.55
						c12.63-1.86,24.59-8.28,34.56-18.57c10.03-10.34,16.34-22.86,18.24-36.2l54.27,40.22c-1.9,13.34-8.21,25.86-18.24,36.2
						c-9.97,10.29-21.93,16.71-34.56,18.57c-2.47,0.36-4.92,0.55-7.27,0.55C675.03,834.94,667.25,832.46,660.86,827.72z"/>
				</g>
				<g>
					<polygon class="st3" points="824.28,572.41 878.55,612.63 858.72,615.55 804.45,575.33 					"/>
				</g>
				<g>
					<path class="st3" d="M862.2,477.28l54.27,40.22c1.67,1.24,3.26,2.64,4.75,4.18c8.8,9.19,12.36,21.75,10.28,36.32
						c-1.89,13.24-8.19,25.69-18.22,36.03c-10.23,10.37-22.17,16.75-34.72,18.6l-54.27-40.22c12.55-1.85,24.49-8.22,34.72-18.6
						c10.03-10.34,16.33-22.8,18.22-36.03c2.08-14.57-1.48-27.13-10.28-36.32C865.45,479.92,863.87,478.52,862.2,477.28z"/>
				</g>
				<g>
					<polygon class="st3" points="778.25,676.26 832.52,716.48 751.04,728.47 696.78,688.25 					"/>
				</g>
				<g>
					<path class="st3" d="M839.32,470c10.87,0,20.41,3.97,27.62,11.46c8.8,9.19,12.36,21.75,10.28,36.32
						c-1.89,13.24-8.19,25.69-18.22,36.03c-10.23,10.37-22.17,16.75-34.72,18.6l-19.83,2.92c6.19,1.74,11.7,4.98,16.29,9.62
						c9,9.39,12.55,22,10.46,36.69c-1.88,13.22-8.19,25.68-18.22,36.03c-10.23,10.37-22.18,16.75-34.73,18.6l-81.48,11.99
						l-7.29,51.15c-1.9,13.34-8.21,25.86-18.24,36.2c-9.97,10.29-21.93,16.71-34.56,18.57c-2.47,0.36-4.92,0.55-7.27,0.55
						c-10.89,0-20.38-3.92-27.49-11.33c-8.79-9.16-12.34-21.78-10.25-36.48l21.33-149.78l6.89-48.35
						c1.55-10.86,6.07-21.2,13.19-30.28c1.53-1.95,3.18-3.84,4.94-5.66c10-10.45,22.04-16.97,34.83-18.85l159.35-23.45
						C834.62,470.18,837.02,470,839.32,470z"/>
				</g>
				<g>
					<path class="st3" d="M816.39,581.17l54.27,40.22c1.53,1.13,2.98,2.39,4.35,3.78c9,9.39,12.55,22,10.46,36.69
						c-1.88,13.22-8.19,25.68-18.22,36.03c-10.23,10.37-22.18,16.75-34.73,18.6l-54.27-40.22c12.55-1.85,24.5-8.22,34.73-18.6
						c10.03-10.35,16.34-22.81,18.22-36.03c2.09-14.68-1.46-27.3-10.46-36.69C819.37,583.56,817.92,582.3,816.39,581.17z"/>
				</g>
			</g>
		</g>
	</g>
	<g>
		<g>
			<path class="st4" d="M598.54,249.01c12.25,12.77,16.87,29.6,13.89,50.51l-14.12,99.16c-2.98,20.91-12.7,39.86-29.19,56.85
				c-16.48,16.99-34.81,26.97-54.99,29.94l-63.81,9.39c-3.81,0.56-7.49,0.84-11.02,0.84c-15.16,0-27.7-5.17-37.62-15.53
				c-12.24-12.76-16.86-29.6-13.88-50.51l14.12-99.16c2.98-20.91,12.7-39.86,29.18-56.85c16.47-16.98,34.82-26.96,55-29.94
				l63.81-9.39c3.81-0.56,7.48-0.84,11.01-0.84C576.07,233.48,588.61,238.66,598.54,249.01z M547.3,406.19l14.12-99.16
				c0.91-6.37-0.54-11.48-4.32-15.3c-2.99-3.21-6.8-4.82-11.43-4.82c-1.06,0-2.16,0.08-3.3,0.25l-63.81,9.39
				c-6.15,0.91-11.77,3.98-16.85,9.21c-4.95,5.11-7.88,10.85-8.79,17.24l-14.12,99.15c-0.91,6.37,0.47,11.54,4.13,15.49
				c3.07,3.09,6.91,4.64,11.52,4.64c1.09,0,2.22-0.09,3.4-0.26l63.81-9.39c6.15-0.9,11.71-3.91,16.67-9.02
				C543.4,418.37,546.4,412.56,547.3,406.19L547.3,406.19z"/>
		</g>
		<g>
			<path class="st4" d="M350.01,264.02c5.34,0,9.73,1.84,13.15,5.51c4.23,4.41,5.83,10.25,4.79,17.53
				c-1.04,7.28-4.4,13.85-10.09,19.72c-5.7,5.87-12.11,9.34-19.24,10.38l-121.14,17.83l-6.6,46.3l86.16-12.68
				c3.81-0.56,7.47-0.84,11-0.84c15.17,0,27.72,5.17,37.65,15.52c12.24,12.77,16.87,29.6,13.89,50.53
				c-2.98,20.91-12.71,39.86-29.19,56.85c-16.48,16.99-34.82,26.96-55,29.94l-111.58,16.42c-1.37,0.2-2.68,0.3-3.94,0.3
				c-5.31,0-9.68-1.78-13.09-5.35c-4.24-4.41-5.83-10.31-4.78-17.69c1.04-7.28,4.4-13.84,10.11-19.72
				c5.69-5.87,12.11-9.34,19.23-10.38l111.58-16.42c6.16-0.91,11.71-3.91,16.67-9.02c5.08-5.24,8.07-11.04,8.98-17.43
				c0.91-6.37-0.53-11.46-4.32-15.29c-2.98-3.21-6.78-4.82-11.4-4.82c-1.07,0-2.18,0.09-3.33,0.26l-111.58,16.42
				c-1.37,0.2-2.68,0.3-3.94,0.3c-5.31,0-9.68-1.78-13.09-5.35c-4.24-4.41-5.84-10.26-4.8-17.53l14.12-99.16
				c1.03-7.26,4.4-13.84,10.11-19.72c5.71-5.98,12.14-9.5,19.25-10.55l146.56-21.57C347.49,264.12,348.78,264.02,350.01,264.02z"/>
		</g>
		<g>
			<path class="st4" d="M871.73,322.46c10.69,11.02,14.73,25.65,12.13,43.88c-2.6,18.24-11.08,34.76-25.45,49.58
				c-14.25,14.68-30.17,23.33-47.77,25.91c-3.35,0.49-6.58,0.74-9.67,0.74c-13.17,0-24.04-4.47-32.61-13.41
				c-10.67-11.13-14.71-25.8-12.11-44.04c1.13-7.91,3.36-15.48,6.7-22.73l-60.11,83.81c-6.19,8.58-13.88,13.55-23.05,14.9
				c-1.26,0.18-2.48,0.28-3.66,0.28c-3.6,0-6.86-0.85-9.8-2.57c-5.24-3.28-8.05-8.39-8.44-15.34c-0.38-6.95,1.8-13.74,6.55-20.34
				l75.09-104.52c-13.75,13.53-29.05,21.53-45.87,24c-3.35,0.49-6.58,0.74-9.68,0.74c-13.18,0-24.1-4.47-32.76-13.39
				c-10.57-11.14-14.56-25.84-11.96-44.06c2.6-18.23,11.02-34.69,25.27-49.38c14.37-14.82,30.36-23.52,47.95-26.12
				c3.31-0.49,6.5-0.73,9.57-0.73c13.21,0,24.11,4.52,32.68,13.56c10.7,11.02,14.74,25.65,12.15,43.87
				c-1.12,7.89-3.35,15.46-6.68,22.71l60.07-83.61c4.76-6.72,10.7-11.32,17.81-13.79c3.04-1.01,5.92-1.51,8.64-1.51
				c3.64,0,6.99,0.9,10.06,2.71c5.26,3.16,8.08,8.23,8.46,15.17c0.39,6.96-1.85,13.75-6.7,20.38L783.2,334.17
				c13.88-13.87,29.3-22.04,46.28-24.55c3.31-0.49,6.5-0.73,9.56-0.73C852.26,308.9,863.15,313.42,871.73,322.46z M827.8,383.8
				c2.85-2.94,4.53-6.26,5.06-9.95c0.51-3.58-0.28-6.53-2.38-8.85c-1.81-1.77-4.01-2.66-6.63-2.66c-0.61,0-1.24,0.05-1.89,0.15
				c-3.57,0.52-6.78,2.25-9.63,5.19c-2.87,3.04-4.55,6.36-5.06,9.94c-0.53,3.69,0.27,6.64,2.38,8.85c1.71,1.78,3.9,2.68,6.56,2.68
				c0.63,0,1.28-0.05,1.97-0.15C821.64,388.47,824.84,386.75,827.8,383.8L827.8,383.8z M710.81,284.56
				c2.85-2.94,4.54-6.26,5.07-9.95c0.51-3.58-0.3-6.47-2.42-8.68c-1.8-1.89-4.03-2.83-6.67-2.83c-0.59,0-1.2,0.05-1.83,0.14
				c-3.56,0.52-6.77,2.31-9.64,5.36c-2.85,2.94-4.52,6.19-5.03,9.77c-0.52,3.69,0.26,6.64,2.38,8.85c1.71,1.78,3.9,2.68,6.55,2.68
				c0.63,0,1.28-0.05,1.96-0.15C704.64,289.24,707.86,287.51,710.81,284.56L710.81,284.56z"/>
		</g>
		<g>
			<path class="st4" d="M338.91,604.51c20.26,21,27.93,48.83,22.99,83.5c-4.92,34.56-21.02,65.9-48.27,94
				c-27.13,27.98-57.44,44.42-90.9,49.35c-6.32,0.93-12.42,1.4-18.27,1.4c-25.02,0-45.74-8.51-62.17-25.53
				c-20.13-21.12-27.75-48.97-22.83-83.53c4.94-34.67,20.98-66,48.11-93.97c27.26-28.11,57.57-44.61,90.93-49.52
				c6.33-0.93,12.42-1.4,18.27-1.4C301.87,578.81,322.59,587.37,338.91,604.51z M283.01,749.89c15.74-16.22,25.04-34.35,27.89-54.37
				c2.85-20.02-1.57-36.12-13.26-48.31c-9.57-9.97-21.62-14.96-36.17-14.96c-3.36,0-6.86,0.27-10.49,0.8
				c-19.33,2.85-36.86,12.43-52.62,28.78c-15.74,16.22-25.02,34.34-27.87,54.36c-2.85,20.02,1.56,36.12,13.25,48.31
				c9.48,9.88,21.47,14.82,35.97,14.82c3.38,0,6.9-0.27,10.56-0.81C249.58,775.67,267.17,766.12,283.01,749.89L283.01,749.89z"/>
		</g>
		<g>
			<path class="st4" d="M600.99,530.06c5.31,0,9.73,1.83,13.25,5.5c4.23,4.42,5.84,10.26,4.8,17.54c-1.03,7.26-4.4,13.84-10.1,19.71
				c-5.8,5.89-12.22,9.36-19.23,10.4l-133.93,19.71l-6.6,46.3L551.2,634.2c1.33-0.19,2.61-0.29,3.84-0.29
				c5.28,0,9.68,1.78,13.2,5.34c4.23,4.42,5.83,10.32,4.78,17.69c-1.04,7.28-4.41,13.85-10.11,19.72
				c-5.81,5.89-12.22,9.36-19.24,10.39l-102.02,15.01l-10.35,72.65c-1.05,7.38-4.43,14-10.13,19.89
				c-5.7,5.87-12.06,9.33-19.07,10.36c-1.37,0.2-2.68,0.3-3.94,0.3c-5.31,0-9.68-1.78-13.1-5.35c-4.24-4.41-5.83-10.32-4.78-17.69
				l28.22-198.14c1.04-7.28,4.4-13.85,10.11-19.72c5.72-5.99,12.14-9.5,19.27-10.56l159.35-23.45
				C598.53,530.16,599.78,530.06,600.99,530.06z"/>
		</g>
		<g>
			<path class="st4" d="M836.88,495.35c5.31,0,9.72,1.83,13.25,5.5c4.23,4.42,5.83,10.26,4.8,17.53
				c-1.04,7.28-4.41,13.85-10.1,19.72c-5.81,5.89-12.22,9.36-19.23,10.4L691.65,568.2l-6.6,46.3l102.03-15.02
				c1.33-0.2,2.62-0.29,3.86-0.29c5.27,0,9.67,1.79,13.19,5.34c4.23,4.41,5.82,10.32,4.77,17.69c-1.04,7.28-4.4,13.85-10.09,19.72
				c-5.81,5.89-12.22,9.36-19.24,10.38l-102.03,15.02l-10.35,72.64c-1.05,7.39-4.43,14.02-10.12,19.89
				c-5.7,5.88-12.06,9.34-19.08,10.37c-1.37,0.2-2.68,0.3-3.94,0.3c-5.31,0-9.68-1.78-13.09-5.36c-4.24-4.4-5.83-10.31-4.78-17.69
				l28.22-198.13c1.04-7.28,4.41-13.85,10.11-19.72c5.71-5.99,12.14-9.51,19.26-10.56l159.36-23.45
				C834.42,495.44,835.67,495.35,836.88,495.35z"/>
		</g>
	</g>
</g>
</svg>
